<?xml version="1.0" encoding="UTF-8"?>
<svg id="Layer_1" xmlns="http://www.w3.org/2000/svg" xmlns:xlink="http://www.w3.org/1999/xlink" version="1.1" viewBox="0 0 900 431.4">
  <!-- Generator: Adobe Illustrator 29.4.0, SVG Export Plug-In . SVG Version: 2.1.0 Build 152)  -->
  <defs>
    <style>
      .st0 {
        fill: none;
      }

      .st1 {
        fill: url(#linear-gradient2);
      }

      .st2 {
        fill: url(#linear-gradient1);
      }

      .st3 {
        fill: url(#linear-gradient3);
      }

      .st4 {
        fill: url(#linear-gradient);
      }

      .st5, .st6 {
        fill-rule: evenodd;
      }

      .st5, .st7 {
        fill: #f58432;
      }

      .st6, .st8 {
        fill: #223f80;
      }

      .st9 {
        fill: #00a54f;
      }
    </style>
    <linearGradient id="linear-gradient" x1="480.13" y1="266.49" x2="646.04" y2="100.58" gradientUnits="userSpaceOnUse">
      <stop offset=".15" stop-color="#26a7df"/>
      <stop offset=".66" stop-color="#282560"/>
    </linearGradient>
    <linearGradient id="linear-gradient1" x1="540.2" y1="220.9" x2="549.83" y2="211.27" xlink:href="#linear-gradient"/>
    <linearGradient id="linear-gradient2" x1="544.63" y1="226.58" x2="554.25" y2="216.95" xlink:href="#linear-gradient"/>
    <linearGradient id="linear-gradient3" x1="526.18" y1="213.92" x2="529.9" y2="210.2" xlink:href="#linear-gradient"/>
  </defs>
  <g>
    <path class="st8" d="M622.03,293.2h-9.82v-3.01c0-1.41-.13-2.3-.38-2.69-.25-.38-.67-.58-1.26-.58-.64,0-1.12.26-1.44.78-.33.52-.49,1.31-.49,2.36,0,1.36.18,2.38.55,3.07.35.69,1.35,1.52,2.99,2.49,4.71,2.79,7.67,5.09,8.89,6.88,1.22,1.79,1.83,4.68,1.83,8.66,0,2.9-.34,5.03-1.02,6.4-.68,1.37-1.99,2.52-3.93,3.45-1.94.93-4.2,1.39-6.78,1.39-2.83,0-5.24-.54-7.25-1.61-2-1.07-3.31-2.44-3.93-4.09-.62-1.66-.93-4.01-.93-7.06v-2.66h9.82v4.95c0,1.52.14,2.5.41,2.94.28.44.77.65,1.47.65s1.23-.28,1.57-.83c.34-.55.51-1.37.51-2.46,0-2.39-.33-3.96-.98-4.7-.67-.74-2.32-1.97-4.95-3.69-2.63-1.74-4.37-3.01-5.22-3.79-.85-.79-1.56-1.88-2.12-3.26-.56-1.39-.84-3.17-.84-5.32,0-3.11.4-5.39,1.19-6.83.79-1.44,2.08-2.57,3.85-3.38,1.77-.81,3.92-1.22,6.43-1.22,2.75,0,5.09.44,7.02,1.33,1.93.89,3.21,2.01,3.84,3.35.63,1.35.94,3.64.94,6.87v1.61Z"/>
    <path class="st8" d="M626.22,280.89h17.63v8.14h-7.06v7.71h6.61v7.74h-6.61v8.94h7.76v8.14h-18.33v-40.66Z"/>
    <g>
      <path class="st8" d="M41.51,91.94h143.77l-2.84,20.32c-.87,6.12-3.93,8.74-10.49,8.74h-40.64v124.55h-35.83v-124.55h-40.42c-6.56,0-9.61-2.62-10.49-8.74l-3.06-20.32Z"/>
      <path class="st0" d="M159.29,203.42"/>
      <path class="st8" d="M430.91,94.35h-85.65v153.61h35.83v-49.16h49.82c36.49,0,55.28-16.39,54.84-47.85v-8.74c0-31.68-18.35-47.85-54.84-47.85ZM447.97,120.18c.54,1.18-.25,1.99-.79,2.87-.2.34-.28.69-.27,1.09,0,.64-.39,1.15-.59,1.72-.53,1.5-1.66,2.65-2.12,4.26-.35,1.2-.13,1.93.32,2.83.22.45.15.74-.3,1.03-.65.41-.77,1-.31,1.66.38.53.34,1,.06,1.63-.68,1.56-1.38,3.14-1.1,4.93.04.24-.09.39-.17.57-.29.75-.89,1.51.14,2.2.15.1.07.52.13.79.08.38.24.91.64.84.89-.15,1.15.36,1.43,1,.1.23.35.5.58.56.79.19.81.62.51,1.24-.09.19-.13.45.03.6.71.68.39,1.83,1.2,2.5.5.41.07,1.13.23,1.7.5,1.76.3,3.45-.07,5.27-.33,1.62-1.36,2.72-1.92,4.12-.29.72-.47,1.7-.33,2.12.61,1.84-.51,2.72-1.6,3.69-.21.19-.46.33-.46.64,0,.49-.27.67-.72.7-.52.04-1.02-.02-1.23-.55-.17-.44-.47-.65-.86-.82-.76-.33-1.2-.99-1.66-1.62-.3-.41-.59-.68-.98-.07-.28.44-.8.61-1.18.3-.81-.66-.97-.06-1.28.49-.52.9-1.38,1.09-2.15.39-.46-.41-.74-.32-.97.08-.5.85-1.45.78-2.18,1.11-.9.4-1.41-.53-1.99-.98-1.01-.77-1.99-1.23-3.21-.51-.2.11-.47.07-.7.14-.74.21-1.31.54-1.33,1.47-.02.95-.67,1.27-1.48.79-.43-.26-.86-.44-1.35-.5-.31-.04-.7-.13-.74-.48-.15-1.37-1.19-.79-1.8-.73-1.56.18-3.36-1.05-3.65-2.62-.18-.95-.14-1.94-.66-2.95-.72,1.49-1.98,1.72-3.4,1.6,0,0,0,0,0,0-.09-.6.16-.93.72-1.21.68-.34,1.23-.74,1.11-1.8-.09-.74-.44-1.79.66-2.4.47-.26.14-1.32-.35-1.63-.71-.45-1.34-1.03-2.1-1.43-.21-.11-.25-.57-.66-.46-.37.1-.4.41-.47.72-.24,1.07-.91,1.4-1.85.93-.11-.05-.27-.07-.39-.04-.97.25-1.83.91-2.96.1-.33-.23-1.35.78-2.13.03,0,0-.18.2-.3.25-.86.35-1.9.1-2.04-.6-.11-.56-.73-1.09-.2-1.78.2-.26-.1-.56-.44-.68-.15-.05-.49-.04-.41-.17.81-1.22.02-1.47-.95-1.68-.16-.03-.26-.3-.38-.47-.71-1.01-1.82-1.37-2.92-1.72-.52-.17-1.11-.13-1.26.51-.14.59-.45.45-.84.4-.9-.12-1.83-.54-2.68.19-.07.06-.3.04-.37-.03-.17-.16-.03-.34.11-.42.48-.29.81-.72,1.16-1.14.54-.64,1.05-1.32,2.08-.96.3.1.52-.14.67-.39.91-1.62-.29-3.14-.24-4.73,0-.06-.15-.14-.24-.18-.75-.33-.45-.75.05-.82.96-.15.89-1.02,1.14-1.56.21-.47-.48-.71-.91-.92-.12-.06-.26-.13-.33-.24-.73-1.06-2.21-1.64-3.33-1.25-.3.1-.55.16-.73-.11-.18-.27.08-.47.26-.6.61-.44.67-.95.36-1.61-.62-1.32-.04-3.9,1.1-4.84,1.25-1.02,2.32-2.15,3.21-3.53.52-.8,1.38-1.75,2.4-1.74,1.57.01,2.01-1.16,2.42-2.1.38-.88.74-1.84.98-2.79.17-.66.33-1.62-.21-2.11-.46-.42-.38-.68-.28-1.12.52-2.31-.01-3.69-1.84-4.86.36-1.01.28-2.21,1.29-2.93.26-.19.16-.52.17-.78.03-.54.02-1.1.7-1.21.69-.12,1.28.23,1.52.81.29.71.44.69.83.1.52-.78,1.59-1.03,2.69-.63.86.32,1.32.89,1.1,1.88-.11.5,1.36,1.32,1.91,1,.81-.48,1.13.07,1.74.43,1.14.67,1.78,2.22,3.62,1.85,1.15-.23,1.97.95,2.52,1.93.35.62.88,1.12,1.06,1.92.15.69,2.27.86,2.92.41,1.2-.84,1.55-.85,2.85-.02.38.24.78.22,1.04-.08.44-.52,1.12-.5,1.64-.84.53-.35.89-.02,1.3,1.07.64-.41,1.3-.79,2.11-.65.2.03.31-.07.45-.18.95-.77,1.66-.57,2.05.59.05.15.09.31.15.52.88-.52,1.7-1.18,2.46.12.18.3.76.25,1.09-.15.47-.58.98-1.1,1.2-1.89.27-1,1.38-1.49,1.77-2.5.15-.4,1.33,0,1.47.59.14.6.48.61.91.51.88-.22,1.63,0,2.27.61.17.16.31.21.54.12,1.24-.5,2.26-.15,3.44.46.66.34,1.65.28,2.42.79.69.46,1.24.83.53,1.69-.08.09-.13.28-.08.38Z"/>
      <path class="st6" d="M272.74,126.47h-26c-33.87,0-50.47,15.95-50.47,45.01v31.03c0,29.06,16.61,45.01,50.47,45.01h26c33.87,0,50.47-15.95,50.47-45.01v-31.03c0-29.06-16.61-45.01-50.47-45.01ZM267.93,219.55h-16.39c-8.95,0-14.7-2.14-17.83-6.79,17.45-4.68,34.86-5.08,52.21-.22-3.09,4.8-8.89,7-17.99,7ZM248.37,206.61c-.31.06-.6.15-.91.21v-29.37l.91-.72v29.88ZM288.69,200.76c0,4.75-.82,8.52-2.54,11.4-3.45-1.94-7.23-3.48-11.22-4.57v-12.15l3.89,2.41,1.85-2.99-20.94-12.96-9.54,5.7v4.15l9.54-5.7,11.67,7.22v13.49c-7.16-1.47-14.75-1.6-21.94-.32v-30.56l13.18-10.47v7.75h-.86v1.88h1v1.08c-.76.16-1.34.84-1.34,1.65,0,.93.76,1.68,1.68,1.68s1.68-.75,1.68-1.68h-.69c0,.55-.45,1-1,1s-1-.45-1-1,.45-1,1-1h.34v-1.73h1v-1.88h-.86v-8.53l1.99-1.58-.02-2.35-16.12,12.81v-3.56l-1.09.83v3.61l-.91.72v-3.64l-2.64,2v3.75l-1.73,1.37v-3.82l-7.98,6.02v9.71l7.98-6.35v-3.21l1.73-1.37v27.89c-4.07,1.11-7.92,2.74-11.42,4.84-1.78-2.9-2.61-6.71-2.61-11.53v-27.53c0-13.11,6.12-18.79,20.76-18.79h16.39c14.64,0,20.76,5.68,20.76,18.79v27.53ZM239.3,181.94v3.09l-2.63,2.09v-3.2l2.63-1.99Z"/>
      <rect class="st8" x="260.22" y="197.73" width="3.51" height="3.51"/>
      <rect class="st8" x="255.74" y="197.73" width="3.51" height="3.51"/>
      <rect class="st8" x="255.74" y="193.25" width="3.51" height="3.51"/>
      <rect class="st8" x="260.22" y="193.25" width="3.51" height="3.51"/>
      <polygon class="st6" points="243.09 186.42 237.98 190.48 243.09 190.48 243.09 186.42"/>
      <g>
        <path class="st4" d="M604.62,159.02l-51.78-11.36c-9.4-2.18-11.58-4.37-11.58-11.58v-2.84c0-6.99,3.06-9.83,10.49-9.83h74.51c6.55,0,9.61-2.62,10.49-8.74l3.06-20.32h-89.37c-29.28,0-45.01,12.89-45.01,36.71v6.12c0,24.47,11.14,35.84,41.95,42.61l50.04,10.92c9.83,2.18,12.24,4.59,12.24,12.02v6.12c-.18,22.4-32.64,14.91-69.88,14.52-.58-.21-1.39-.45-2.56-.71,0,0,0,0,0,0-.03-.07-.05-.14-.08-.21.46-.88.8-1.83.9-2.83.05-.64.1-1.12-.18-1.79-.26-.63-.93-1.06-1.43-1.37-.87-.56-1.78-1.06-2.73-1.48-.81-.98-2.18-1.33-3.37-.81-.24.07-.47.19-.67.37-.84.76-1.59,1.48-2.35,2.02l-.62-.7-3.11-3.47s0-.01,0-.02c-.06-.4-.25-.75-.63-.91-.09-.04-.17-.05-.25-.05l-2.83-3.16-.51-2.08c-.07-.29-.21-.56-.41-.79l-3.15-3.52c-.27-.3-.73-.32-1.03-.06l-1.72,1.54c-.3.27-.32.73-.06,1.03l3.15,3.52c.2.22.45.39.73.5l2.01.74,3.01,3.36c-.2.73-.4,1.45-.55,2.2-.14.73-.26,1.42-.2,2.2.24,3.32,3.6,4.23,6.35,3.23.3-.11.6-.24.89-.38l1.53,1.71c-1.45-.13-2.16-.06-2.52.05-.05,0-.1.01-.14.03-.16.06-.28.18-.34.33-4.7-.87-10.22-1.74-14.11-2.66.66-.83,1.29-1.47,1.29-1.47-.91.18-1.63.66-2.23,1.24-1.59-.41-2.83-.82-3.48-1.25h0c-.93-.63-1.68-1.18-2.14-1.44.08-.12.14-.18.14-.18-.1.03-.19.08-.28.12-.1-.05-.2-.1-.26-.1-.02,0-.04,0-.06,0,0,0,0,0,0,0-.04.01-.07.03-.1.06,0,0-.01.01-.02.02-.02.02-.04.05-.06.09,0,0,0,.01,0,.02-.02.04-.03.08-.05.14,0,0,0,0,0,.01,0,.04-.01.09-.02.13-1.64,1.49-1.34,5.11-2.07,3.14-.83-2.25,2.02-7.95,2.02-7.95-4.51,2.54-4.05,9.31-4.91,9.57-.86.26-1.35-2.94-1.35-2.94,0,0-1.79,4.48.58,8.84-.73.18-1.46.37-2.18.57-.15-.28-.31-.54-.45-.84-4.36-9.26,1.17-16,1.17-16-3.68,1.15-2.95,8.38-4.14,5.17-1.19-3.21,2.87-11.33,2.87-11.33-6.43,3.61-5.77,13.27-7,13.64-1.23.37-1.93-4.19-1.93-4.19,0,0-3.16,7.86,2.13,14.62.25.33.55.63.85.93-.87.3-1.74.62-2.6.95-5.38-6.97-4.42-14.4-4.42-14.4-3.53,4.09,2.66,12.13-1.11,9.2-3.78-2.94-4.94-15.58-4.94-15.58-4.97,9.03,2.92,20.02,1.74,21.37-1.19,1.34-5.38-3.55-5.38-3.55,0,0,.69,3.89,3.43,7.97-5.75,3.22-11.21,7.22-16.22,12.2h138.89c29.28,0,45.01-12.89,45.01-36.49v-10.93c0-24.47-10.27-34.96-40.86-41.51ZM525.67,217.36c-1.49.38-2.12-.05-2.18-1.57-.03-.5-.03-1.02-.01-1.53l1.14,1.27,1.5,1.67c-.15.06-.29.11-.44.15ZM507.72,225.57c-.9.16-1.8.32-2.7.5-1.39-3.93-.31-7.09.55-8.74.1.54.31,1.21.69,1.99.01.02.02.05.04.07.04.08.08.17.13.25.03.05.06.11.09.17.03.06.07.13.1.19.07.13.14.25.22.38.31.51.77,1.12,1.29,1.75-.36.9-.62,2.08-.41,3.43ZM511.11,225.03s0-.03,0-.04c.02.01.04.02.05.04-.02,0-.04,0-.06,0Z"/>
        <path class="st2" d="M531.93,212.64c.09.01.17.02.26.04.87.16,4.06,2.12,4.92,2.67.09.05.18.11.28.18l21.83,5.14-27.53-10.06c.26.65.34,1.35.24,2.03Z"/>
        <path class="st1" d="M539.33,219.71c-.04.44-.12.88-.24,1.33l22.07,2.82-21.86-5.75c.11.57.08,1.07.04,1.52v.09Z"/>
        <path class="st3" d="M530.55,212.84c.43-1.39-.34-2.86-1.73-3.29-1.39-.43-2.86.34-3.29,1.73-.43,1.39.34,2.86,1.73,3.29,1.39.43,2.86-.34,3.29-1.73Z"/>
      </g>
      <path class="st6" d="M301.07,83.07l-9.72,9.92-9.45-12.29-6.09-1.48-12.19-15.02-27.43,31.31c-3.29-3.2-6.45-6.54-9.46-10.04-10.62,12.02-28.49,26.15-41.06,34.63,13.57-6.17,32.78-20.2,41.2-29.72,10.33,11.26,25.49,22.94,40.74,29.72-3.82-2.47-7.58-5.04-11.25-7.71,1.7-.36,3.71-1.36,5.74-2.21,9.84-4.09,11.96,9.92,34.34,9.92-10.46-4.8-11.27-7.86-17.54-15.06,9.32,2.89,17.74,8.53,26.5,12.03-11.54-9.65-18.08-19.52-26.95-31.06l-6.01-1.46-8.99-11.08c-.63,7.29.95,16.57,9.67,23.37-4.03.92-9.58-2.27-12.45-3.16-2.76-.85-3.9-.19-5.88,2.42-1.62,1.89-3.99,6.21-8.16,8.74-2.83-2.34-5.6-4.76-8.28-7.27l25.18-28.74,10.59,13.06,6.05,1.47,9.28,12.07c5.44,7.08,19.36,22.34,31.31,24.68-2.77-.96-5.45-2.43-8.02-4.25-1.92-1.81-3.53-4.59-3.77-8.22,2.2,3.95,6.41,7.3,13.37,7.32,4.77,3.09,7.92,4,12.64,5.14-13.08-7.44-24.42-15.31-34.5-27.91-2.6,5.97-.35,10.61,1.03,13.31-3.01-3.36-5.81-6.87-8.36-10.1l7.61-7.76c8.32,11.51,24.5,25.22,40.79,32.47-12.55-8.12-29.76-22.24-40.5-37.03h0ZM209.52,111.87c-.66,5.03-7.04,7.26-11.25,8.23,13.02,0,21.95-.94,32.63-10.34-.4,3.1-2.29,7.83-4.62,10.34,13.77-6.51,12.3-2.65,35.51,0-14.01-5.91-24.67-15.49-33.78-24.6,2.29,11.11-6.4,14.85-18.49,16.36h0Z"/>
      <path class="st5" d="M300.44,68.25c10.64,0,19.27,8.63,19.27,19.27,0,4.13-1.3,7.95-3.51,11.09-.35-.33-.69-.67-1.04-1.01-4.77-4.67-9.33-9.7-13.26-15.11l-1.09-1.5-9.76,9.95-8.39-10.91c2.92-6.93,9.78-11.79,17.76-11.79Z"/>
      <path class="st8" d="M64.92,280.89v8.14h-6.28v32.52h-10.57v-32.52h-6.25v-8.14h23.11Z"/>
      <path class="st8" d="M91.49,304.7c0,4.08-.1,6.98-.29,8.68-.19,1.7-.8,3.25-1.81,4.66-1.01,1.41-2.38,2.49-4.11,3.24-1.72.75-3.73,1.13-6.03,1.13s-4.13-.36-5.86-1.07-3.13-1.78-4.18-3.2c-1.06-1.42-1.68-2.97-1.88-4.65-.2-1.67-.3-4.6-.3-8.79v-6.96c0-4.08.1-6.98.29-8.68.19-1.7.79-3.25,1.81-4.66,1.01-1.41,2.38-2.49,4.11-3.24,1.72-.75,3.73-1.13,6.03-1.13s4.13.36,5.86,1.07c1.73.71,3.13,1.78,4.18,3.2s1.68,2.97,1.88,4.65c.2,1.67.3,4.6.3,8.79v6.96ZM80.92,291.34c0-1.89-.1-3.1-.31-3.63-.21-.53-.64-.79-1.29-.79-.55,0-.98.21-1.27.64-.29.43-.44,1.69-.44,3.78v18.99c0,2.36.1,3.82.29,4.37.19.55.64.83,1.34.83s1.18-.32,1.38-.95c.2-.64.3-2.15.3-4.55v-18.68Z"/>
      <path class="st8" d="M119.47,280.89v27.17c0,3.08-.1,5.24-.3,6.49-.2,1.25-.8,2.53-1.78,3.84-.99,1.31-2.29,2.31-3.91,2.99-1.62.68-3.52,1.02-5.71,1.02-2.43,0-4.57-.4-6.43-1.21-1.86-.8-3.25-1.85-4.17-3.14-.92-1.29-1.47-2.65-1.63-4.08-.17-1.43-.25-4.44-.25-9.03v-24.06h10.57v30.49c0,1.77.1,2.91.29,3.4.19.49.58.74,1.17.74.67,0,1.1-.27,1.29-.82.19-.54.29-1.83.29-3.86v-29.96h10.57Z"/>
      <path class="st8" d="M123.56,280.89h7.48c4.99,0,8.37.19,10.13.58,1.77.38,3.21,1.37,4.32,2.95,1.11,1.58,1.67,4.11,1.67,7.57,0,3.16-.39,5.29-1.18,6.38-.79,1.09-2.34,1.74-4.65,1.96,2.09.52,3.5,1.21,4.22,2.09s1.17,1.67,1.34,2.4c.18.73.26,2.73.26,6.02v10.72h-9.82v-13.51c0-2.18-.17-3.52-.51-4.04s-1.24-.78-2.7-.78v18.33h-10.57v-40.66ZM134.13,287.85v9.04c1.19,0,2.02-.16,2.5-.49.48-.33.72-1.39.72-3.18v-2.24c0-1.29-.23-2.13-.69-2.54s-1.3-.6-2.52-.6Z"/>
      <path class="st8" d="M161.83,280.89v40.66h-10.57v-40.66h10.57Z"/>
      <path class="st8" d="M188.48,293.2h-9.82v-3.01c0-1.41-.13-2.3-.38-2.69-.25-.38-.67-.58-1.26-.58-.64,0-1.12.26-1.44.78-.33.52-.49,1.31-.49,2.36,0,1.36.18,2.38.55,3.07.35.69,1.35,1.52,2.99,2.49,4.71,2.79,7.67,5.09,8.89,6.88,1.22,1.79,1.83,4.68,1.83,8.66,0,2.9-.34,5.03-1.02,6.4-.68,1.37-1.99,2.52-3.93,3.45-1.94.93-4.2,1.39-6.78,1.39-2.83,0-5.24-.54-7.25-1.61-2-1.07-3.31-2.44-3.93-4.09-.62-1.66-.93-4.01-.93-7.06v-2.66h9.82v4.95c0,1.52.14,2.5.41,2.94.28.44.77.65,1.47.65s1.23-.28,1.57-.83c.34-.55.51-1.37.51-2.46,0-2.39-.33-3.96-.98-4.7-.67-.74-2.32-1.97-4.95-3.69-2.63-1.74-4.37-3.01-5.22-3.79-.85-.79-1.56-1.88-2.12-3.26-.56-1.39-.84-3.17-.84-5.32,0-3.11.4-5.39,1.19-6.83s2.08-2.57,3.86-3.38c1.77-.81,3.92-1.22,6.43-1.22,2.75,0,5.09.44,7.02,1.33,1.93.89,3.21,2.01,3.84,3.35.63,1.35.94,3.64.94,6.87v1.61Z"/>
      <path class="st8" d="M225.3,280.89v40.66h-9.24v-27.45s-3.69,27.45-3.69,27.45h-6.55l-3.88-26.82v26.82h-9.25v-40.66h13.68c.41,2.44.82,5.33,1.25,8.64l1.5,10.34,2.43-18.99h13.76Z"/>
      <path class="st8" d="M238.61,280.89h10.65c2.88,0,5.09.23,6.64.68,1.55.45,2.71,1.1,3.49,1.96.78.85,1.31,1.89,1.58,3.1s.41,3.09.41,5.64v3.54c0,2.6-.27,4.49-.8,5.68-.54,1.19-1.52,2.1-2.95,2.74-1.43.64-3.3.95-5.61.95h-2.84v16.37h-10.57v-40.66ZM249.18,287.85v10.35c.3.02.56.03.78.03.97,0,1.64-.24,2.02-.72.38-.48.56-1.47.56-2.98v-3.34c0-1.39-.22-2.29-.65-2.71-.44-.42-1.34-.63-2.71-.63Z"/>
      <path class="st8" d="M264.43,280.89h7.48c4.99,0,8.37.19,10.13.58,1.77.38,3.21,1.37,4.32,2.95,1.11,1.58,1.67,4.11,1.67,7.57,0,3.16-.39,5.29-1.18,6.38-.79,1.09-2.34,1.74-4.65,1.96,2.09.52,3.5,1.21,4.22,2.09.72.87,1.17,1.67,1.34,2.4.18.73.26,2.73.26,6.02v10.72h-9.82v-13.51c0-2.18-.17-3.52-.51-4.04s-1.24-.78-2.7-.78v18.33h-10.57v-40.66ZM275,287.85v9.04c1.19,0,2.02-.16,2.5-.49.48-.33.72-1.39.72-3.18v-2.24c0-1.29-.23-2.13-.69-2.54s-1.3-.6-2.52-.6Z"/>
      <path class="st8" d="M316.29,304.7c0,4.08-.1,6.98-.29,8.68-.19,1.7-.8,3.25-1.81,4.66-1.01,1.41-2.38,2.49-4.11,3.24-1.72.75-3.73,1.13-6.03,1.13s-4.13-.36-5.86-1.07c-1.73-.71-3.13-1.78-4.18-3.2-1.06-1.42-1.68-2.97-1.88-4.65-.2-1.67-.3-4.6-.3-8.79v-6.96c0-4.08.1-6.98.29-8.68.19-1.7.79-3.25,1.81-4.66,1.01-1.41,2.38-2.49,4.11-3.24,1.72-.75,3.73-1.13,6.03-1.13s4.13.36,5.86,1.07c1.73.71,3.13,1.78,4.18,3.2,1.05,1.42,1.68,2.97,1.88,4.65.2,1.67.3,4.6.3,8.79v6.96ZM305.71,291.34c0-1.89-.1-3.1-.31-3.63-.21-.53-.64-.79-1.29-.79-.55,0-.98.21-1.27.64-.29.43-.44,1.69-.44,3.78v18.99c0,2.36.1,3.82.29,4.37.19.55.64.83,1.34.83s1.18-.32,1.38-.95c.2-.64.3-2.15.3-4.55v-18.68Z"/>
      <path class="st8" d="M333.16,280.89v27.17c0,4.07-.04,6.68-.13,7.85-.08,1.16-.47,2.21-1.15,3.15-.68.94-1.6,1.59-2.77,1.95-1.16.36-2.92.54-5.26.54h-5.3v-7.11c.64.05,1.1.08,1.38.08.75,0,1.35-.18,1.78-.55s.69-.82.75-1.36c.07-.54.1-1.57.1-3.12v-28.61h10.57Z"/>
      <path class="st8" d="M337.26,280.89h17.63v8.14h-7.06v7.71h6.6v7.74h-6.6v8.94h7.76v8.14h-18.33v-40.66Z"/>
      <path class="st8" d="M383.32,298.6h-10.57v-7.07c0-2.05-.11-3.34-.34-3.85-.23-.51-.72-.76-1.49-.76-.87,0-1.42.31-1.66.93-.23.62-.35,1.96-.35,4.02v18.89c0,1.98.12,3.26.35,3.87.23.6.76.9,1.58.9s1.3-.3,1.54-.91c.24-.6.36-2.02.36-4.25v-5.11h10.57v1.58c0,4.21-.3,7.19-.89,8.95-.59,1.76-1.91,3.3-3.94,4.63-2.03,1.32-4.54,1.99-7.52,1.99s-5.65-.56-7.66-1.68c-2.01-1.12-3.34-2.67-3.99-4.66-.65-1.98-.98-4.97-.98-8.95v-11.88c0-2.93.1-5.13.3-6.59.2-1.47.8-2.88,1.8-4.23,1-1.36,2.38-2.42,4.14-3.2,1.77-.78,3.8-1.17,6.09-1.17,3.11,0,5.68.6,7.71,1.81,2.03,1.2,3.36,2.7,3.99,4.5.64,1.8.95,4.59.95,8.39v3.86Z"/>
      <path class="st8" d="M408.41,280.89v8.14h-6.28v32.52h-10.57v-32.52h-6.25v-8.14h23.1Z"/>
      <path class="st8" d="M442.28,293.2h-9.82v-3.01c0-1.41-.13-2.3-.38-2.69-.25-.38-.67-.58-1.26-.58-.64,0-1.12.26-1.44.78-.33.52-.49,1.31-.49,2.36,0,1.36.18,2.38.55,3.07.35.69,1.35,1.52,2.99,2.49,4.71,2.79,7.67,5.09,8.89,6.88,1.22,1.79,1.83,4.68,1.83,8.66,0,2.9-.34,5.03-1.02,6.4-.68,1.37-1.99,2.52-3.93,3.45-1.94.93-4.2,1.39-6.78,1.39-2.83,0-5.24-.54-7.25-1.61-2-1.07-3.31-2.44-3.93-4.09-.62-1.66-.93-4.01-.93-7.06v-2.66h9.82v4.95c0,1.52.14,2.5.41,2.94.28.44.77.65,1.47.65s1.23-.28,1.57-.83.51-1.37.51-2.46c0-2.39-.33-3.96-.98-4.7-.67-.74-2.32-1.97-4.95-3.69-2.63-1.74-4.37-3.01-5.22-3.79-.85-.79-1.56-1.88-2.12-3.26-.56-1.39-.84-3.17-.84-5.32,0-3.11.4-5.39,1.19-6.83.79-1.44,2.08-2.57,3.85-3.38,1.77-.81,3.92-1.22,6.43-1.22,2.75,0,5.09.44,7.02,1.33,1.93.89,3.21,2.01,3.84,3.35s.94,3.64.94,6.87v1.61Z"/>
      <path class="st8" d="M470.79,280.89v40.66h-10.57v-17.08h-3.16v17.08h-10.57v-40.66h10.57v14.54h3.16v-14.54h10.57Z"/>
      <path class="st8" d="M499.19,304.7c0,4.08-.1,6.98-.29,8.68-.19,1.7-.8,3.25-1.81,4.66s-2.38,2.49-4.11,3.24c-1.72.75-3.73,1.13-6.03,1.13s-4.13-.36-5.86-1.07c-1.73-.71-3.13-1.78-4.18-3.2-1.05-1.42-1.68-2.97-1.88-4.65-.2-1.67-.3-4.6-.3-8.79v-6.96c0-4.08.1-6.98.29-8.68.19-1.7.8-3.25,1.81-4.66,1.01-1.41,2.38-2.49,4.11-3.24,1.72-.75,3.73-1.13,6.03-1.13s4.13.36,5.86,1.07c1.73.71,3.13,1.78,4.18,3.2s1.68,2.97,1.88,4.65c.2,1.67.3,4.6.3,8.79v6.96ZM488.62,291.34c0-1.89-.11-3.1-.31-3.63-.21-.53-.64-.79-1.29-.79-.55,0-.98.21-1.27.64-.29.43-.44,1.69-.44,3.78v18.99c0,2.36.1,3.82.29,4.37.19.55.64.83,1.34.83s1.18-.32,1.38-.95c.2-.64.3-2.15.3-4.55v-18.68Z"/>
      <path class="st8" d="M542.94,280.89l-4.71,40.66h-13.2c-1.21-6.25-2.28-13.35-3.2-21.32-.42,3.42-1.4,10.52-2.95,21.32h-13.13l-4.73-40.66h10.27l1.12,14.19,1.08,13.72c.39-7.1,1.37-16.4,2.92-27.9h10.98c.15,1.19.53,5.66,1.15,13.41l1.17,15.47c.6-9.84,1.58-19.47,2.95-28.88h10.27Z"/>
      <path class="st8" d="M569.71,298.6h-10.57v-7.07c0-2.05-.11-3.34-.34-3.85-.23-.51-.72-.76-1.49-.76-.87,0-1.42.31-1.66.93-.23.62-.35,1.96-.35,4.02v18.89c0,1.98.12,3.26.35,3.87.23.6.76.9,1.58.9s1.3-.3,1.54-.91c.24-.6.36-2.02.36-4.25v-5.11h10.57v1.58c0,4.21-.3,7.19-.89,8.95-.59,1.76-1.91,3.3-3.94,4.63-2.03,1.32-4.54,1.99-7.52,1.99s-5.65-.56-7.66-1.68c-2.01-1.12-3.34-2.67-3.99-4.66-.65-1.98-.98-4.97-.98-8.95v-11.88c0-2.93.1-5.13.3-6.59.2-1.47.8-2.88,1.8-4.23,1-1.36,2.38-2.42,4.14-3.2,1.77-.78,3.8-1.17,6.09-1.17,3.11,0,5.68.6,7.71,1.81,2.03,1.2,3.36,2.7,3.99,4.5.64,1.8.95,4.59.95,8.39v3.86Z"/>
      <path class="st8" d="M591.78,280.89l6.05,40.66h-10.81l-.57-7.31h-3.78l-.64,7.31h-10.93l5.39-40.66h15.28ZM586.18,307.04c-.54-4.61-1.07-10.3-1.61-17.08-1.08,7.79-1.75,13.48-2.03,17.08h3.64Z"/>
      <path class="st8" d="M326.49,101.15c.02-.07.12-.2.12-.2l.02-.19s.15-.12.2-.14c.05-.02.42.19.42.19,0,0,.83.39.91.42.08.03.17-.08.29-.05.12.03.17.19.29.24.12.05.1.14.22.12.12-.02.24.1.46-.02.22-.12.58-.22.64-.22s.19.02.19.02c0,0-.34-.86-.37-1.41-.03-.54.24-1.51.24-1.51l-.63-.32.05-.34s-.25.1-.36,0c-.1-.1-.12-.46-.12-.46,0,0-.22-.07-.2-.14.02-.07-.08-.37-.08-.37,0,0-.15.02-.19-.08s.06-.43.06-.43c0-.03-.22-.29-.22-.29,0,0-.18.15-.39.14-.21,0-.27-.31-.27-.31,0,0,.15-.17.25-.21.1-.04.25-.07.25-.07l.21-.26s-.1-.55.43-.75c.53-.2,1.48-.33,1.83.17.35.5.28.88.28.88l.13.07-.12.2.36.05s-.11-.26.09-.36.95-.15,1.03-.11c.07.04.12.39.12.39l-.12.32s.36.04.37,0c.02-.03.19-.45.19-.45l.4-.18-.13.4.69-.82.13.1-.18.27s.55-.04.7.21c.15.24.75.97.75.97,0,0,.45.21.53.44.07.23.16.45.16.45,0,0,.39.47.48.54.09.07.73.46.79.85.06.38.05,1.11,0,1.36s-.11.44-.1.5c0,.06.33.37.23.66s-.65,1.16-.65,1.16c0,0,.29.11.24.21-.04.11-.12.36-.12.39,0,.04-.12.15-.05.19s.14.22.14.22c0,0,0,.62.02.63,0,.02-.29-.84-.29-.84l-.32.03-.13-.27-.29.38s.29.37.23,1.08c-.05.71-.81,1.49-.81,1.49l.13,1.68,5.96,8.28-.21.15-5.81-8.1.07,1.74.2.46-.05.24.17.15s.63,1.42.81,2.12c.19.69.32,1.42.32,1.42l.37,1.25s.15.61.15.68-.08.27-.08.27c0,0-1.93.49-2.1.52-.17.03-.98.08-.98-.02s-.08-.44.13-.59c.06-.04.82-.55.9-.61.08-.07.1-.41.1-.41l-.19-.15s-.47-1.88-.59-2.22c-.12-.34-.39-.81-.51-1.1s-.12-.25-.24-.53c-.12-.27-.15-.44-.2-.69-.05-.25-.68-2.57-.68-2.57l-.91.42.19.17s.07.12.07.19.24.1.24.1c0,0,.32.64.53,1.02.2.37.97,2.27.97,2.27l.02.3.17.14s.68,1.61.64,1.81c-.04.2-.52.17-.59.19-.07.02-.3-.1-.3-.1,0,0-.86.83-1.3.88-.44.05-1-.02-1.05-.12-.05-.1.02-.61.02-.61,0,0,.51-.15.63-.25.12-.1.41-.97.44-1.02s.12-.25.12-.25l-.02-.1s-.25.37-.85-.83c-.59-1.2-1.51-2.76-1.69-3.1-.19-.34-.34-1-.32-1.13.02-.14.19-.44.29-.63.07-.13.3-.3.44-.43l-1.95-2.57-.2.07.02-.46-.86-.56.37-.49-.2-.54s-.83-.25-1-.27-.37-.1-.37-.1c0,0-.02-.25,0-.39.02-.14.07-.22,0-.29-.08-.07-.16-.2-.14-.27ZM329.05,103.91l.08.3s.25-.03.2,0c-.05.03-.02.22-.02.22l1.69,2.39c.3-.36,1.83-1.93,1.83-1.93l-.44-.24-.15.51-.41.32-.08-.34.53-.71-.14-.24s-.27.36-.39.34c-.12-.02-.36-.14-.46-.24-.1-.1-.19-.27-.22-.32-.03-.05-.12-.14-.17-.19-.05-.05-.27-.1-.25-.2.02-.1.37-.37.37-.37l-.19-.49-.8.07s-.15.27-.34.25c-.19-.02-.69-.32-.69-.32l-.34-.08-.14-.05-.17.61.68.71Z"/>
      <path class="st9" d="M423.04,140.09c-.27-.83-.26-2.03-.05-2.89.22-.89.54-1.72,1.14-2.43.35-.42.79-.77,1.24-1.08,1.12-.75,2.65-1.41,3.03-2.84l.04-.04c-.04.25-.09.5-.18.73-.26.63-.82,1.18-1.35,1.58-.54.41-1.14.74-1.66,1.16-1.11.88-1.76,2.3-1.95,3.68-.09.62-.13,1.25-.05,1.88.56-.97,1.27-1.84,2.25-2.41.85-.47,1.81-.75,2.55-1.41,1.05-.94,1.63-2.15,1.7-3.56.08-1.59-.64-3.15-1.69-4.31-.04-.05-.08-.1-.13-.15.21.81.32,1.51-.12,2.27-.13.22-.3.42-.48.61-.76.78-1.57,1-2.47,1.53-.21.12-.46.25-.64.42,0,0,0,0-.01,0-.14.09-.27.21-.4.32-.12.11-.25.22-.36.35-.6.67-.98,1.58-1.14,2.46-.21,1.14-.04,2.4.4,3.47.1.24.2.47.34.68Z"/>
      <path class="st9" d="M417.1,139.15c.11.29.17.6.24.9.09.39.21.78.39,1.14.83,1.69,1.99,1.77,3.36,2.75.26.19.51.38.71.64,0-.3.03-.61.08-.91.03-.19.1-.44.09-.63,0-.17-.12-.38-.18-.54-.32-.78-.67-1.53-1.26-2.15-.74-.78-1.69-1.36-2.63-1.87-.2-.11-.4-.2-.6-.31,1.09.34,2.59,1.07,3.44,1.85.05.05.1.1.15.15.05.05.1.1.15.15.05.05.09.11.14.16.05.05.09.11.13.17.04.06.08.11.12.17.04.06.08.12.12.18.04.06.07.12.11.18.04.06.07.12.1.19.16.32.29.65.46.96.1-.43.25-.88.45-1.27-.04-.08-.08-.17-.13-.25,0,0,0,0,0-.01-.32-.69-.88-1.44-1.44-1.96-.19-.17-.39-.32-.6-.47-.2-.14-.41-.27-.63-.36-.99-.5-2.16-.71-3.25-.55-.37.05-.74.16-1.1.26.7.32,1.3.66,1.59,1.42Z"/>
      <path class="st9" d="M434.38,133.99c-.25-.6-.55-1.09-.89-1.65l.04.29c-.04,1.12-.27,2.13-1.13,2.93-.73.68-1.64,1-2.59,1.24l-.6.15c-.09.02-.19.04-.27.07-1.21.27-2.26.76-3.27,1.47-.79.56-1.47,1.21-2,2.03-.04.06-.08.12-.11.18-.04.06-.07.12-.11.19-.04.06-.07.13-.1.19s-.07.13-.1.19c-.03.06-.06.13-.09.19-.03.07-.06.13-.09.2-.03.07-.06.13-.08.2-.03.07-.05.13-.08.2-.03.07-.05.13-.07.2-.02.07-.05.14-.07.2-.02.07-.04.14-.06.21-.02.07-.04.14-.06.21-.02.07-.04.14-.05.21-.02.07-.03.14-.05.21-.02.07-.03.14-.04.21-.01.07-.03.14-.04.21-.01.07-.02.14-.03.21-.01.07-.02.14-.03.21,0,.07-.02.14-.02.21,0,.07-.01.14-.02.22,0,.07,0,.14-.01.22,0,.07,0,.14,0,.22,0,.07,0,.14,0,.22,0,.07,0,.14,0,.22,0,.07,0,.14,0,.22,0,.07,0,.14.02.22s.01.14.02.22c0,.07.02.14.03.21,0,.07.02.14.03.21.01.07.02.14.04.21.01.07.03.14.04.21.01.07.03.14.05.21.12.54.3,1.23.61,1.69-.07-.38-.15-.77-.18-1.16,0-.06,0-.12-.01-.18,0-.06,0-.12,0-.18,0-.06,0-.12,0-.18,0-.06,0-.12,0-.18,0-.06,0-.12,0-.18,0-.06,0-.12,0-.18,0-.06,0-.12,0-.18,0-.06,0-.12.01-.18,0-.06.01-.12.02-.17,0-.06.01-.12.02-.17,0-.06.02-.12.02-.17,0-.06.02-.12.03-.17,0-.06.02-.12.03-.17.01-.06.02-.11.04-.17.01-.06.03-.11.04-.17.01-.06.03-.11.04-.17.01-.06.03-.11.05-.17.02-.06.03-.11.05-.17.02-.06.03-.11.05-.17.02-.06.04-.11.06-.17.02-.06.04-.11.06-.17.02-.05.04-.11.06-.16.02-.05.04-.11.07-.16.02-.05.05-.11.07-.16.02-.05.05-.11.07-.16s.05-.11.08-.16c.03-.05.05-.1.08-.16.03-.05.06-.1.08-.15.03-.05.06-.1.09-.15.03-.05.06-.1.09-.15.03-.05.06-.1.09-.15.03-.05.06-.1.1-.15.11-.16.22-.31.35-.46.08-.09.16-.18.24-.27.19-.16.35-.36.53-.52.56-.5,1.18-.9,1.85-1.25.54-.29,1.12-.49,1.7-.7.88-.32,1.95-.73,2.73-1.24.26-.18.51-.38.74-.6.27-.25.52-.5.69-.84l.02.02c-.17.38-.4.77-.68,1.08-.3.33-.67.6-1.05.84-.64.4-1.32.72-2.01,1.04-.49.22-.98.43-1.45.69-.64.36-1.26.77-1.8,1.26-2.11,1.87-2.93,4.45-2.53,7.21.37-1.27,1.03-2.19,2.2-2.84.4-.22.8-.4,1.24-.53.18-.06.58-.15.73-.22.34-.09.67-.21,1-.32.86-.29,1.71-.6,2.49-1.08,1.79-1.11,2.93-2.77,3.4-4.81.37-1.58.26-3.32-.37-4.82Z"/>
    </g>
  </g>
  <g>
    <path class="st7" d="M771.31,217.79c-8.35-1.25-17.11-5.42-22.81-9.6-6.68-4.73-11.41-10.43-15.86-17.66-2.92-5.7-6.4-10.85-10.15-14.47,3.48-2.22,6.81-4.73,10.15-7.51,6.95-5.84,14.46-12.94,19.89-20.03,2.5-3.34,5.84-8.35,6.68-12.66.42-2.09-2.5-2.5-2.92-.42-.7,3.48-4.03,8.34-6.26,11.27-5.43,6.81-12.52,13.91-19.2,19.61-3.34,2.92-6.68,5.56-10.29,8.07-1.39-1.25-2.92-2.23-4.59-3.06-2.09-1.25-4.31-1.94-6.81-1.94v-7.23c0-4.45,0-9.04-.28-13.35,0-2.09-2.92-2.09-2.92,0-.14,4.31-.14,8.9-.14,13.35v7.93c-2.92.83-5.42,2.64-7.09,5.01-1.67,2.09-2.78,4.73-2.5,7.51,0,2.64,1.67,4.59,4.31,4.59,1.67,0,3.76-.83,5.42-1.53.28,3.2.28,4.59.28,6.95.14,1.67.14,2.5.14,3.48.28,1.11.42,2.5,1.25,2.92.7.28,1.53.28,2.09-.56.42-.69.84-1.53,1.11-2.36.14-.42-.42-.42-.7-.14-.42.42-.97.83-1.25.98-.14-.98,0-3.34,0-4.31v-8.21c2.37-.98,4.59-2.51,6.68-3.76,1.53-.83,2.92-1.67,4.17-2.64,3.62,3.34,7.09,8.9,10.29,14.19,4.31,7.93,10.15,14.19,16.83,18.78,7.37,5.01,15.72,8.07,24.2,9.32,8.76,1.25,17.52.83,26.57-1.25,6.4-1.39,12.66-3.75,18.5-6.67-6.26,2.5-12.66,4.45-18.92,5.42-8.76,1.67-17.53,1.53-25.87,0ZM702.04,184.27c-1.95.42-2.92,0-3.2-1.94,0-1.81.83-3.9,2.09-5.43,1.25-1.67,2.92-2.92,4.87-3.75,0,1.11,0,4.45.14,9.87-1.25.56-2.64.98-3.89,1.25ZM714.28,178.57c-1.67,1.25-3.48,2.09-5.15,3.2v-9.18c1.81,0,3.75.56,5.42,1.39,1.25.7,2.23,1.53,3.34,2.37-1.25.83-2.37,1.39-3.62,2.22Z"/>
    <path class="st7" d="M769.91,201.52c3.62.42,7.37-.97,10.01-3.34,1.95-1.81,3.34-4.18,2.92-6.82,0-1.95-.97-3.75-2.23-5.29-1.11-1.39-2.78-2.64-4.45-3.34-.97-.42-2.09-.56-3.06,0-.28-.98-1.25-1.67-2.37-.98-.83.56-1.67,1.25-2.64,2.23-2.37,2.37-4.59,5.84-5.01,9.46-.28,2.09.14,4.17,1.67,5.56,1.25,1.67,3.06,2.37,5.15,2.5ZM766.16,193.87c.28-1.95,1.25-4.03,2.09-5.42,1.11-1.25,2.09-2.51,3.2-3.62.14.69.42.83.83,1.25,1.25.7,2.09-.56,2.09-.83.14,0,.56,0,.97.28,1.11.42,2.36,1.39,2.92,2.51.83.97,1.53,2.22,1.67,3.48.28,1.67-.56,3.62-1.81,4.87-2.36,2.09-5.7,3.06-7.93,2.92-1.25-.28-2.5-.83-3.2-1.94-.84-1.25-.97-2.23-.84-3.48Z"/>
    <path class="st7" d="M790.22,192.62c2.09.56,4.31.56,7.93.56,2.92,0,5.42,0,6.68.28-1.25,1.67-4.45,3.75-6.12,5.01-.83.42-1.39.83-2.23,1.25,0-.83-.83-1.11-1.53-.83-.83.42-1.81,1.39-1.81,2.51,0,.83.83,1.67,2.23,1.39,1.25-.42,3.62-1.39,4.59-2.22,2.09-1.11,4.87-2.92,6.54-4.59.83-.83,1.67-1.95,1.67-2.92,0-1.25-.84-1.95-1.95-2.37-1.67-.42-4.17-.42-7.93-.56-2.23,0-7.65,0-8.76-1.11.28-1.25,3.76-3.48,4.87-4.17,2.5-1.81,6.4-4.18,9.6-5.56,3.75-1.53,3.89-.83,4.31-1.67.42-.7,0-1.67-.83-1.95-1.25-.42-3.34.28-4.73.83-3.2,1.53-7.09,3.75-10.29,5.7-1.67,1.25-3.34,2.5-4.59,3.9-.97,1.25-1.67,2.78-.97,4.17.56,1.25,1.81,2.09,3.34,2.37Z"/>
    <path class="st7" d="M857.96,199.43c-.83-.42-1.11-.98-1.53-1.81-.56-2.36-.56-8.21-.42-11.68,0-1.94-3.06-1.67-3.06.42,0,3.48,0,9.6.56,12.1.1.24.2.48.3.71-.69.07-1.39.13-2.11.13-3.06.42-6.68.98-9.32.56-2.37-.14-4.45-.56-5.7-2.5-.97-.98-1.67-2.51-1.81-3.9-.83-3.62-1.11-8.21-1.11-11.68,0-1.95-2.5-2.5-3.34-.7,0,0-1.39,3.76-1.81,4.59-1.95,3.34-4.45,6.54-7.1,9.04-1.11.83-2.36,2.09-3.2,2.23-.56-.83-.83-3.06-.83-10.02.28-5.43.42-12.1.83-17.67.28-6.12.69-11.54,1.11-17.52.14-2.09-2.78-2.37-2.92-.42-.42,7.09-.7,10.15-1.11,17.52-.14,5.56-.56,12.24-.56,17.95-.28,7.65,0,9.18.42,10.43.83,2.5,2.64,3.06,4.59,2.5,1.25-.42,2.23-1.53,3.76-2.92,2.64-2.5,5.42-5.42,7.09-8.76.42,2.09.56,4.17,1.25,5.98.56,1.95,1.39,3.62,2.64,5.01,2.09,2.09,4.87,2.92,7.79,2.92,3.06-.14,6.4-.97,9.6-1.81.63-.19,1.31-.38,2.01-.57.54,1.15,1.16,2.05,2.44,2.37,2.37.7,5.29-.42,6.68-.83,1.11-.42,2.92-.97,4.17-1.81-1.25,0-2.92.14-4.31.42-1.53.14-4.17.56-5.01-.28Z"/>
    <path class="st7" d="M858.52,174.4c.7.42,1.25.28,1.67-.42.7-.83-.42-.83-.14-1.81,0,0,.42-.69.42-.83.14-.83-.42-1.67-1.25-1.94-.83-.14-1.95.28-2.09,1.11,0,.14-.28.98,0,2.23.42.7.83,1.25,1.39,1.67Z"/>
    <path class="st7" d="M758.67,292.45c-2.64-.42-5.42-.83-7.93-1.67-2.92-.83-6.4-1.94-9.74-2.92,2.92-4.87,5.42-10.43,6.26-16.27.83-4.17.83-8.76-.42-12.94-1.25-4.17-4.03-8.21-8.21-9.46-2.09-.42-4.17-.14-6.26,1.11-2.5,1.25-4.59,3.9-5.98,6.68-.7,1.39-1.11,2.92-1.25,4.31,0,2.09,2.92,2.37,3.06.28,0-1.11.42-2.37.84-3.34,1.11-2.09,2.92-4.17,5.01-5.29,1.11-.83,2.5-.98,3.76-.56,1.95.42,4.59,2.64,6.12,7.1.97,3.75.97,7.93.42,11.68-1.11,5.56-3.62,11.41-6.26,15.86-3.62-1.11-5.7-1.53-7.37-1.67-3.06-.7-5.15-.7-7.09.14-3.48,1.95-3.48,7.93-.14,11.27,1.25,1.11,2.92,1.95,4.73,1.95,1.53,0,3.2-.42,4.59-1.25,2.37-1.67,5.01-4.87,6.68-7.1,3.76.98,7.37,1.81,10.71,2.5,2.92.42,5.56.84,8.48.84s5.7-.42,7.93-1.95c-2.5.83-5.15.83-7.93.69ZM731.13,294.96c-.83.56-1.81.97-2.92.97-1.25,0-2.09-.42-2.92-.97-1.81-1.67-3.06-5.29-.14-6.68,1.25-.7,3.76-.28,5.01,0,2.09.14,4.17.83,6.26,1.25-1.25,1.67-3.34,4.18-5.29,5.43Z"/>
    <path class="st7" d="M785.51,256.29c-1.25-2.09-2.92-3.75-5.01-5.01-2.64-1.81-5.84-2.23-6.82-2.09-1.25.42-1.25,2.09,0,2.36.83.14,2.92,0,5.56,1.67,1.67,1.25,3.2,2.64,4.17,4.31,1.25,1.95,2.09,3.75,2.78,5.84.97,4.17.97,8.62.56,12.79-.56,4.18-2.23,8.9-4.31,12.1-2.37,2.92-5.29,4.17-7.51,4.31-2.37,0-4.03-.56-5.29-1.81-2.23-1.94-3.48-5.01-4.31-7.93-.83-2.92-1.11-6.54-1.11-9.6.28-3.34.83-6.67,1.95-9.46.56-1.81,1.67-4.18,2.64-5.56.7-1.11,1.67-1.95,2.78-2.37.56-.14,1.39-.42,1.67-.56,1.67-.28,1.67-2.5,0-2.78-.83-.14-1.95,0-3.2.7-1.39.83-2.23,2.09-3.34,3.48-.97,1.67-2.09,3.62-2.92,6.26-1.25,3.34-1.81,6.67-1.81,10.29-.28,3.34.14,6.82.83,10.15.97,3.75,2.92,7.79,5.98,10.02,1.95,1.25,4.17,1.67,6.26,1.67,3.62-.42,7.09-2.64,9.46-5.56,2.23-3.34,3.89-8.76,4.59-12.94.56-4.59.56-9.46-.7-13.77-.56-2.37-1.39-4.45-2.92-6.54Z"/>
    <path class="st7" d="M876.34,246.69c-7.93,1.53-16,3.34-23.51,5.01-2.92.83-8.35,2.09-11.68,3.75-.83.42-1.95,1.25-2.5,2.09-1.11,1.53,1.25,3.2,2.5,1.67,0,0,.14-.42,1.39-.83,2.92-1.67,7.79-2.92,11.13-3.75,7.51-2.23,15.44-4.17,23.09-5.98,12.38-2.92,25.04-5.42,37.55-7.51-12.66,1.39-25.45,3.34-37.97,5.56Z"/>
    <path class="st7" d="M864.24,270.75c-3.48-.83-7.09-.28-10.15,2.09.14-1.95.42-3.75.56-5.7.42-3.9,1.11-6.4,1.53-9.74.42-2.09-2.5-2.5-2.92-.7-.42,3.34-1.11,6.12-1.53,10.02-.42,3.34-.83,6.67-.97,10.02-.28,1.67,1.81,2.36,2.64,1.11.84-1.25,1.95-2.09,2.78-2.78,2.09-1.39,4.59-2.09,7.51-1.39,2.5.56,5.15,1.81,6.68,3.9,1.25,1.67,1.81,3.34,1.67,5.29-.42,4.31-6.12,7.23-10.29,8.34-3.76.98-9.6.98-13.08.83-2.37-.28-7.09-.69-8.62-2.5-.42-.69-.42-1.53-.14-2.37.42-.97-1.11-1.67-1.67-.83-.69,1.53-.69,2.92.14,4.45.41.65,1.03,1.19,1.77,1.65-1.43.12-2.9.1-4.42.02-2.64-.42-5.43-.83-7.93-1.67-2.92-.83-6.4-1.94-9.74-2.92,2.92-4.87,5.43-10.43,6.26-16.27.83-4.17.83-8.76-.42-12.94-1.25-4.17-4.03-8.21-8.21-9.46-2.09-.42-4.17-.14-6.26,1.11-2.5,1.25-4.59,3.9-5.98,6.68-.7,1.39-1.11,2.92-1.25,4.31,0,2.09,2.92,2.37,3.06.28,0-1.11.42-2.37.83-3.34,1.11-2.09,2.92-4.17,5.01-5.29,1.11-.83,2.5-.98,3.76-.56,1.95.42,4.59,2.64,6.12,7.1.97,3.75.97,7.93.42,11.68-1.11,5.56-3.62,11.41-6.26,15.86-3.62-1.11-5.7-1.53-7.37-1.67-3.06-.7-5.15-.7-7.09.14-3.48,1.95-3.48,7.93-.14,11.27,1.25,1.11,2.92,1.95,4.73,1.95,1.53,0,3.2-.42,4.59-1.25,2.37-1.67,5.01-4.87,6.68-7.1,3.76.98,7.37,1.81,10.71,2.5,2.92.42,5.56.84,8.48.84,1.83,0,3.73-.19,5.44-.75,2.2,1,5.05,1.45,7.22,1.72,4.45.42,10.01.42,14.05-.56,5.84-1.53,12.1-5.01,12.66-10.85.28-2.5-.42-5.29-2.23-7.51-2.09-2.5-5.29-4.45-8.62-5.01ZM808.19,294.96c-.83.56-1.81.97-2.92.97-1.25,0-2.09-.42-2.92-.97-1.81-1.67-3.06-5.29-.14-6.68,1.25-.7,3.76-.28,5.01,0,2.09.14,4.17.83,6.26,1.25-1.25,1.67-3.34,4.18-5.29,5.43Z"/>
  </g>
</svg>