<?xml version="1.0" encoding="UTF-8"?>
<svg id="Layer_1" xmlns="http://www.w3.org/2000/svg" version="1.1" viewBox="0 0 900 431.4">
  <!-- Generator: Adobe Illustrator 29.4.0, SVG Export Plug-In . SVG Version: 2.1.0 Build 152)  -->
  <defs>
    <style>
      .st0 {
        fill: none;
        stroke: #223f80;
        stroke-miterlimit: 10;
      }
    </style>
  </defs>
  <path class="st0" d="M599.61,118.75c2.9,6.38-1.38,10.73-4.25,15.49-1.1,1.81-1.49,3.75-1.48,5.88.02,3.46-2.12,6.23-3.21,9.3-2.88,8.11-8.95,14.32-11.47,23.01-1.88,6.49-.71,10.42,1.73,15.3,1.21,2.42.83,4.01-1.64,5.57-3.49,2.22-4.16,5.43-1.66,8.97,2.04,2.89,1.82,5.41.33,8.8-3.7,8.41-7.47,17-5.96,26.63.2,1.29-.5,2.09-.9,3.11-1.58,4.04-4.82,8.14.76,11.92.81.55.36,2.83.68,4.27.45,2.05,1.29,4.9,3.44,4.52,4.8-.83,6.2,1.92,7.73,5.38.56,1.25,1.89,2.71,3.13,3.01,4.25,1.04,4.38,3.36,2.77,6.69-.49,1.02-.7,2.41.14,3.22,3.85,3.69,2.1,9.89,6.48,13.53,2.7,2.24.38,6.09,1.27,9.18,2.73,9.51,1.63,18.64-.4,28.48-1.8,8.74-7.34,14.71-10.38,22.28-1.56,3.88-2.53,9.21-1.78,11.48,3.28,9.93-2.76,14.7-8.62,19.95-1.14,1.02-2.48,1.78-2.5,3.46-.03,2.63-1.48,3.6-3.89,3.8-2.8.23-5.5-.12-6.63-2.97-.93-2.36-2.54-3.54-4.65-4.45-4.1-1.77-6.47-5.33-8.97-8.76-1.61-2.21-3.2-3.67-5.32-.35-1.53,2.39-4.33,3.27-6.35,1.61-4.36-3.59-5.24-.31-6.93,2.62-2.81,4.86-7.45,5.89-11.64,2.11-2.48-2.24-4.02-1.71-5.25.41-2.68,4.6-7.83,4.21-11.78,5.99-4.84,2.18-7.61-2.89-10.77-5.3-5.47-4.18-10.73-6.63-17.34-2.78-1.06.62-2.56.4-3.81.76-4,1.15-7.05,2.91-7.17,7.93-.12,5.12-3.62,6.89-8,4.27-2.31-1.38-4.63-2.36-7.29-2.7-1.7-.22-3.77-.69-3.98-2.57-.84-7.4-6.41-4.29-9.73-3.92-8.45.95-18.16-5.67-19.74-14.18-.95-5.11-.74-10.49-3.54-15.92-3.9,8.06-10.72,9.32-18.36,8.64,0,0,0,0,0,0-.5-3.24.85-5.01,3.87-6.51,3.7-1.85,6.66-4.02,6.01-9.72-.46-4.02-2.39-9.69,3.57-12.99,2.52-1.4.75-7.16-1.88-8.84-3.86-2.46-7.23-5.59-11.37-7.74-1.12-.58-1.33-3.06-3.58-2.47-2.03.53-2.15,2.2-2.52,3.91-1.28,5.8-4.9,7.55-9.98,5.05-.6-.3-1.47-.37-2.12-.2-5.23,1.38-9.9,4.91-16,.54-1.76-1.26-7.31,4.23-11.49.16-.04-.04-.96,1.09-1.6,1.35-4.66,1.88-10.27.56-11.02-3.23-.6-3.04-3.96-5.87-1.06-9.62,1.1-1.42-.56-3.05-2.39-3.68-.79-.27-2.66-.23-2.21-.9,4.36-6.61.11-7.95-5.13-9.08-.84-.18-1.43-1.64-2.08-2.55-3.86-5.47-9.86-7.38-15.78-9.29-2.79-.9-5.98-.72-6.8,2.77-.75,3.2-2.45,2.43-4.53,2.14-4.88-.67-9.89-2.9-14.49,1.05-.38.32-1.61.2-2.02-.18-.93-.87-.18-1.83.58-2.29,2.57-1.57,4.36-3.9,6.25-6.14,2.93-3.47,5.68-7.15,11.22-5.2,1.59.56,2.83-.75,3.6-2.12,4.91-8.76-1.57-16.99-1.3-25.55.01-.32-.79-.76-1.28-.97-4.08-1.77-2.45-4.03.26-4.45,5.19-.8,4.81-5.5,6.14-8.41,1.16-2.54-2.6-3.84-4.9-4.99-.65-.32-1.39-.71-1.78-1.28-3.95-5.74-11.94-8.88-17.98-6.77-1.61.56-2.99.88-3.96-.6-.97-1.49.45-2.55,1.39-3.24,3.27-2.39,3.63-5.13,1.95-8.71-3.35-7.13-.23-21.09,5.96-26.16,6.75-5.53,12.53-11.65,17.35-19.09,2.79-4.3,7.46-9.47,12.98-9.43,8.46.06,10.86-6.26,13.08-11.37,2.07-4.78,4.01-9.95,5.31-15.07.91-3.59,1.81-8.75-1.11-11.4-2.5-2.27-2.06-3.68-1.52-6.07,2.81-12.48-.06-19.94-9.97-26.29,1.93-5.45,1.51-11.92,6.96-15.86,1.41-1.02.85-2.81.93-4.21.16-2.92.12-5.92,3.78-6.55,3.73-.64,6.92,1.22,8.22,4.38,1.57,3.84,2.38,3.72,4.48.53,2.78-4.23,8.6-5.59,14.53-3.4,4.63,1.71,7.13,4.79,5.96,10.18-.59,2.7,7.34,7.13,10.3,5.38,4.39-2.59,6.11.38,9.41,2.32,6.18,3.63,9.6,11.98,19.57,10.02,6.22-1.22,10.63,5.16,13.61,10.44,1.9,3.38,4.75,6.06,5.72,10.4.83,3.7,12.27,4.67,15.79,2.19,6.5-4.57,8.37-4.6,15.42-.12,2.03,1.29,4.24,1.21,5.61-.41,2.39-2.82,6.06-2.68,8.89-4.54,2.85-1.88,4.79-.09,7.04,5.79,3.48-2.24,7.05-4.28,11.39-3.53,1.06.18,1.67-.38,2.43-1,5.15-4.18,8.96-3.06,11.09,3.19.28.83.5,1.69.83,2.82,4.76-2.81,9.17-6.37,13.3.65.95,1.62,4.1,1.36,5.87-.82,2.55-3.14,5.32-5.92,6.46-10.2,1.45-5.43,7.44-8.04,9.57-13.49.84-2.14,7.16.02,7.93,3.21.78,3.26,2.59,3.31,4.9,2.73,4.76-1.19,8.81,0,12.28,3.31.93.89,1.67,1.14,2.93.63,6.7-2.72,12.21-.82,18.61,2.49,3.59,1.86,8.91,1.51,13.08,4.26,3.74,2.48,6.72,4.51,2.85,9.12-.41.49-.68,1.53-.44,2.06Z"/>
</svg>