<?xml version="1.0" encoding="UTF-8"?>
<svg id="Layer_1" xmlns="http://www.w3.org/2000/svg" version="1.1" viewBox="0 0 900 431.4">
  <!-- Generator: Adobe Illustrator 29.4.0, SVG Export Plug-In . SVG Version: 2.1.0 Build 152)  -->
  <defs>
    <style>
      .st0 {
        fill: #f58432;
      }

      .st0, .st1 {
        fill-rule: evenodd;
      }

      .st1, .st2 {
        fill: #223f80;
      }
    </style>
  </defs>
  <path class="st1" d="M662.09,167.77l-52.53,53.57-51.02-66.38-32.91-7.99-65.84-81.15-148.19,169.12c-17.79-17.27-34.86-35.31-51.09-54.21-57.37,64.93-153.92,141.28-221.78,187.09,73.31-33.33,177.07-109.13,222.56-160.55,55.78,60.84,137.7,123.92,220.05,160.55-20.65-13.35-40.94-27.22-60.76-41.67,9.19-1.96,20.02-7.36,31.02-11.94,53.16-22.12,64.61,53.61,185.5,53.61-56.51-25.94-60.89-42.44-94.76-81.38,50.34,15.6,95.81,46.08,143.16,64.98-62.33-52.15-97.66-105.45-145.59-167.8l-32.45-7.87-48.56-59.85c-3.4,39.37,5.16,89.49,52.24,126.26-21.78,4.99-51.73-12.26-67.27-17.08-14.89-4.61-21.09-1.02-31.77,13.09-8.73,10.23-21.57,33.56-44.09,47.22-15.31-12.65-30.23-25.73-44.71-39.3l136.04-155.25,57.22,70.53,32.68,7.93,50.13,65.22c29.38,38.22,104.58,120.67,169.14,133.31-14.96-5.18-29.42-13.13-43.32-22.95-10.36-9.75-19.05-24.8-20.38-44.39,11.9,21.33,34.6,39.43,72.23,39.55,25.76,16.69,42.77,21.63,68.29,27.79-70.65-40.17-131.91-82.69-186.36-150.79-14.04,32.25-1.91,57.34,5.57,71.89-16.28-18.14-31.38-37.09-45.14-54.56l41.11-41.92c44.93,62.18,132.37,136.25,220.36,175.38-67.81-43.85-160.78-120.15-218.76-200.04h0ZM167.56,323.34c-3.55,27.16-38.04,39.23-60.78,44.47,70.35,0,118.59-5.06,176.26-55.88-2.18,16.73-12.38,42.27-24.97,55.88,74.4-35.19,66.44-14.31,191.81,0-75.68-31.91-133.29-83.67-182.46-132.88,12.37,60.01-34.55,80.25-99.86,88.4h0Z"/>
  <path class="st0" d="M658.69,87.71c57.5,0,104.11,46.61,104.11,104.11,0,22.3-7.01,42.95-18.94,59.89-1.88-1.8-3.74-3.62-5.6-5.44-25.76-25.21-50.42-52.41-71.61-81.6l-5.9-8.13-52.72,53.76-45.3-58.94c15.79-37.41,52.81-63.67,95.96-63.67Z"/>
  <path class="st2" d="M799.43,265.39c.09-.37.64-1.1.64-1.1l.09-1.01s.82-.64,1.1-.73c.27-.09,2.29,1.01,2.29,1.01,0,0,4.48,2.1,4.94,2.29.46.18.92-.46,1.56-.27.64.18.91,1.01,1.56,1.28.64.27.55.73,1.19.64.64-.09,1.28.55,2.47-.09,1.19-.64,3.11-1.19,3.48-1.19s1.01.09,1.01.09c0,0-1.83-4.67-2.01-7.59-.18-2.93,1.28-8.14,1.28-8.14l-3.39-1.74.27-1.83s-1.37.55-1.92,0c-.55-.55-.64-2.47-.64-2.47,0,0-1.19-.37-1.1-.73.09-.37-.46-2.01-.46-2.01,0,0-.82.09-1.01-.46s.31-2.31.31-2.31c0-.14-1.2-1.54-1.2-1.54,0,0-.96.82-2.12.77-1.16-.05-1.45-1.69-1.45-1.69,0,0,.82-.92,1.35-1.11.53-.19,1.35-.39,1.35-.39l1.11-1.4s-.53-2.99,2.31-4.05c2.84-1.06,8-1.78,9.87.92,1.88,2.7,1.49,4.77,1.49,4.77l.72.39-.63,1.06,1.93.29s-.58-1.4.48-1.93c1.06-.53,5.15-.82,5.54-.58.39.24.63,2.12.63,2.12l-.63,1.73s1.93.19,2.02.05c.1-.14,1.01-2.41,1.01-2.41l2.17-.96-.72,2.17,3.71-4.43.72.53-.96,1.45s2.99-.19,3.81,1.11c.82,1.3,4.05,5.25,4.05,5.25,0,0,2.46,1.11,2.84,2.36.39,1.25.87,2.41.87,2.41,0,0,2.12,2.55,2.6,2.94.48.39,3.95,2.5,4.29,4.58.34,2.07.29,5.97,0,7.32s-.58,2.36-.53,2.7c.05.34,1.78,1.97,1.25,3.56-.53,1.59-3.52,6.26-3.52,6.26,0,0,1.54.58,1.3,1.16-.24.58-.63,1.93-.67,2.12-.05.19-.63.82-.29,1.01s.77,1.2.77,1.2c0,0,.05,3.32.1,3.42.05.1-1.54-4.53-1.54-4.53l-1.73.14-.72-1.45-1.54,2.07s1.54,1.97,1.25,5.83c-.29,3.85-4.38,8.04-4.38,8.04l.68,9.07,32.19,44.75-1.15.82-31.4-43.75.37,9.42,1.1,2.47-.27,1.28.91.82s3.39,7.69,4.39,11.44c1.01,3.75,1.74,7.69,1.74,7.69l2.01,6.77s.82,3.29.82,3.66-.46,1.46-.46,1.46c0,0-10.45,2.64-11.36,2.82-.92.18-5.31.45-5.31-.1s-.44-2.39.72-3.17c.34-.23,4.42-2.95,4.88-3.31.46-.37.55-2.2.55-2.2l-1.01-.82s-2.56-10.15-3.2-11.98c-.64-1.83-2.1-4.39-2.75-5.95s-.64-1.37-1.28-2.84c-.64-1.46-.82-2.38-1.1-3.75-.27-1.37-3.66-13.91-3.66-13.91l-4.94,2.29,1.01.92s.37.64.37,1.01,1.28.55,1.28.55c0,0,1.74,3.48,2.84,5.49,1.1,2.01,5.22,12.26,5.22,12.26l.09,1.65.92.73s3.68,8.69,3.44,9.79c-.24,1.1-2.8.91-3.17,1.01-.37.09-1.65-.55-1.65-.55,0,0-4.67,4.48-7.05,4.76-2.38.27-5.4-.09-5.67-.64-.27-.55.09-3.29.09-3.29,0,0,2.75-.82,3.39-1.37.64-.55,2.2-5.22,2.38-5.49s.64-1.37.64-1.37l-.09-.55s-1.37,2.01-4.58-4.48c-3.2-6.5-8.14-14.92-9.15-16.75-1.01-1.83-1.83-5.4-1.74-6.13.09-.73,1.01-2.38,1.56-3.39.38-.69,1.61-1.64,2.38-2.31l-10.52-13.89-1.1.37.09-2.47-4.67-3.02,2.01-2.65-1.1-2.93s-4.48-1.37-5.4-1.46-2.01-.55-2.01-.55c0,0-.09-1.37,0-2.1.09-.73.38-1.19-.04-1.56-.42-.37-.87-1.1-.78-1.46ZM813.25,280.31l.46,1.65s1.37-.18,1.1,0c-.27.18-.09,1.19-.09,1.19l9.15,12.89c1.62-1.94,9.88-10.42,9.88-10.42l-2.38-1.28-.82,2.75-2.2,1.74-.46-1.83,2.84-3.84-.73-1.28s-1.46,1.92-2.1,1.83c-.64-.09-1.92-.73-2.47-1.28-.55-.55-1.01-1.46-1.19-1.74-.18-.27-.64-.73-.92-1.01-.27-.27-1.46-.55-1.37-1.1.09-.55,2.01-2.01,2.01-2.01l-1.01-2.65-4.3.37s-.82,1.46-1.83,1.37c-1.01-.09-3.75-1.74-3.75-1.74l-1.83-.46-.73-.27-.92,3.29,3.66,3.84Z"/>
</svg>